<svg width="303" height="34" viewBox="0 0 303 34" fill="none" xmlns="http://www.w3.org/2000/svg">
<path d="M33.57 22.9395C33.5674 25.7783 32.4378 28.4998 30.4296 30.5062C28.4214 32.5125 25.6987 33.6396 22.86 33.6396H0V0.0195312H21.18C23.5855 0.0195312 25.8925 0.975132 27.5935 2.67609C29.2944 4.37704 30.25 6.68402 30.25 9.08954C30.2473 10.8297 29.7401 12.5317 28.79 13.9895C30.2639 14.9706 31.4718 16.3015 32.3059 17.8632C33.14 19.425 33.5743 21.169 33.57 22.9395ZM5.98001 12.2095H21.17C21.9578 12.1647 22.6986 11.8201 23.2405 11.2465C23.7824 10.6728 24.0843 9.91364 24.0843 9.12454C24.0843 8.33544 23.7824 7.57625 23.2405 7.00262C22.6986 6.429 21.9578 6.08442 21.17 6.03955H5.99001L5.98001 12.2095ZM27.57 22.9395C27.57 21.6877 27.0727 20.4872 26.1875 19.602C25.3024 18.7168 24.1018 18.2195 22.85 18.2195H5.99001V27.6595H22.87C24.1175 27.6516 25.3114 27.1512 26.1917 26.2672C27.072 25.3831 27.5674 24.1871 27.57 22.9395Z" fill="#1899D9"/>
<path d="M37.1914 33.5995V0.0195312H43.1914V33.5995H37.1914Z" fill="#1899D9"/>
<path d="M81.5722 0.00976562V33.6098H75.5722V12.2198L69.6922 16.7498L64.7822 20.5398L59.8722 16.7498L53.9922 12.2198V33.6098H47.9922V0.00976562L53.9922 4.63977L64.7822 12.9398L75.5722 4.63977L81.5722 0.00976562Z" fill="#1899D9"/>
<path d="M119.941 0.0393066V6.03931H106.151V33.6293H100.151V6.0293H86.3711V0.0292969L119.941 0.0393066Z" fill="#1899D9"/>
<path d="M151.93 27.5998L154.98 33.5998H148.26L145.19 27.5998L141.98 21.2998L141.83 21.0398C141.301 20.1612 140.553 19.4349 139.659 18.9318C138.765 18.4288 137.756 18.1662 136.73 18.1698H130.73V33.6098H124.73V0.00977384H145.92C147.11 0.00816655 148.288 0.242405 149.387 0.698983C150.485 1.15556 151.482 1.82542 152.32 2.66978C153.357 3.70635 154.127 4.97843 154.565 6.37733C155.003 7.77623 155.095 9.26037 154.835 10.7029C154.575 12.1454 153.969 13.5034 153.07 14.6609C152.17 15.8184 151.004 16.741 149.67 17.3498C148.847 17.7376 147.965 17.9875 147.06 18.0898L151.93 27.5998ZM145.93 12.1798C146.367 12.1873 146.798 12.0914 147.19 11.8998C147.733 11.6584 148.193 11.2639 148.515 10.7648C148.836 10.2656 149.005 9.68348 149 9.08976C148.988 8.26446 148.663 7.47467 148.09 6.87977C147.514 6.3137 146.738 5.99752 145.93 5.99976H130.73V12.1798H145.93Z" fill="#1899D9"/>
<path d="M192.101 33.6096H185.381L182.301 27.6096L174.981 13.2296L167.661 27.6096L164.591 33.6096H157.871L160.921 27.6096L174.981 0.0195312L189.051 27.6096L192.101 33.6096Z" fill="#1899D9"/>
<path d="M228.572 27.58V33.58H202.652V33.64H195.092V33.58L199.722 27.58L207.982 16.87L211.772 11.94L216.352 6H195.012V0H221.012H228.572L223.922 6L215.572 16.87L211.802 21.76L207.312 27.58H228.572Z" fill="#1899D9"/>
<path d="M239.378 9.08975V12.1998H260.988V18.1998H239.378V24.5398C239.378 25.3558 239.701 26.1388 240.276 26.7177C240.852 27.2966 241.632 27.6245 242.448 27.6298H266.968V33.6298H242.448C240.045 33.6245 237.741 32.6652 236.044 30.9626C234.347 29.2601 233.396 26.9535 233.398 24.5497V9.08975C233.396 6.68597 234.347 4.37945 236.044 2.67691C237.741 0.974367 240.045 0.0150647 242.448 0.00976562H266.968V6.00977H242.448C241.634 6.01503 240.855 6.34155 240.28 6.9183C239.705 7.49506 239.381 8.27542 239.378 9.08975Z" fill="#1899D9"/>
<path d="M298.95 27.5998L302.01 33.5998H295.28L292.21 27.5998L289 21.2998L288.86 21.0398C288.325 20.1644 287.574 19.4409 286.679 18.9384C285.785 18.4359 284.776 18.1713 283.75 18.1698H277.75V33.6098H271.75V0.00977384H292.94C294.13 0.00816655 295.308 0.242405 296.406 0.698983C297.505 1.15556 298.502 1.82542 299.34 2.66978C300.374 3.70741 301.142 4.97962 301.579 6.37809C302.015 7.77656 302.107 9.25983 301.847 10.7015C301.587 12.1433 300.982 13.5007 300.084 14.6583C299.186 15.8158 298.022 16.7392 296.69 17.3498C295.866 17.7362 294.984 17.9861 294.08 18.0898L298.95 27.5998ZM292.95 12.1798C293.383 12.1884 293.812 12.0924 294.2 11.8998C294.748 11.6653 295.214 11.2728 295.538 10.7723C295.863 10.2718 296.03 9.68599 296.02 9.08976C296.009 8.26224 295.679 7.47083 295.1 6.87977C294.818 6.59752 294.483 6.37431 294.114 6.22321C293.744 6.07211 293.349 5.99614 292.95 5.99976H277.75V12.1798H292.95Z" fill="#1899D9"/>
</svg>
