<svg xmlns="http://www.w3.org/2000/svg" viewBox="0 0 192 152"><path fill="#F8EBCB" d="M64 0 0 32v6l128 64 64-32v-6z"/><path d="M13.4 32 64 6.7 178.6 64 128 89.3z" opacity=".1"/><path d="M64 10.7v-4L13.4 32l4 2z" opacity=".39"/><path d="M64 10.7 174.6 66l4-2L64 6.7z" opacity=".06"/><path fill="#F8EBCB" d="m192 120-64 32V96l64-32z"/><path fill="#39C" d="m142 126-12 6v-13l12-6z"/><path fill="#BAA794" d="m142 118-4 2v-5l-1 .5v5l-3 1.5v-5l-1 .5v5l-3 1.5v1l3-1.5v7l1-.5v-7l3-1.5v7l1-.5v-7l4-2z"/><path fill="#BAA794" d="M141 113.5v12l-11 5.5v1l12-6v-13z"/><path d="m142 115-12 6v-2l12-6z" opacity=".15"/><path d="m142 114-12 6v-1l12-6z" opacity=".15"/><path fill="#39C" d="m158 118-12 6v-13l12-6z"/><path fill="#BAA794" d="m158 110-4 2v-5l-1 .5v5l-3 1.5v-5l-1 .5v5l-3 1.5v1l3-1.5v7l1-.5v-7l3-1.5v7l1-.5v-7l4-2z"/><path fill="#BAA794" d="M157 105.5v12l-11 5.5v1l12-6v-13z"/><path d="m158 107-12 6v-2l12-6z" opacity=".15"/><path d="m158 106-12 6v-1l12-6z" opacity=".15"/><path fill="#39C" d="m174 110-12 6v-13l12-6z"/><path d="M174 106h-12v-3l12-6z" opacity=".15"/><path fill="#BAA794" d="m174 102-4 2v-5l-1 .5v5l-3 1.5v-5l-1 .5v5l-3 1.5v1l3-1.5v7l1-.5v-7l3-1.5v7l1-.5v-7l4-2z"/><path fill="#BAA794" d="M173 97.5v12l-11 5.5v1l12-6V97z"/><path d="m174 99-12 6v-2l12-6z" opacity=".15"/><path d="m174 98-12 6v-1l12-6z" opacity=".15"/><path fill="#39C" d="m190 102-12 6V95l12-6z"/><path d="M190 99h-12v-4l12-6z" opacity=".15"/><path fill="#BAA794" d="m190 94-4 2v-5l-1 .5v5l-3 1.5v-5l-1 .5v5l-3 1.5v1l3-1.5v7l1-.5v-7l3-1.5v7l1-.5v-7l4-2z"/><path fill="#BAA794" d="M189 89.5v12l-11 5.5v1l12-6V89z"/><path d="m190 91-12 6v-2l12-6z" opacity=".15"/><path d="m190 90-12 6v-1l12-6z" opacity=".15"/><path fill="#39C" d="m142 142-12 6v-13l12-6z"/><path fill="#BAA794" d="m142 134-4 2v-5l-1 .5v5l-3 1.5v-5l-1 .5v5l-3 1.5v1l3-1.5v7l1-.5v-7l3-1.5v7l1-.5v-7l4-2z"/><path fill="#BAA794" d="M141 129.5v12l-11 5.5v1l12-6v-13z"/><path d="m142 131-12 6v-2l12-6z" opacity=".15"/><path d="m142 130-12 6v-1l12-6z" opacity=".15"/><path fill="#39C" d="m158 134-12 6v-13l12-6z"/><path d="M158 131h-12v-4l12-6z" opacity=".15"/><path fill="#BAA794" d="m158 126-4 2v-5l-1 .5v5l-3 1.5v-5l-1 .5v5l-3 1.5v1l3-1.5v7l1-.5v-7l3-1.5v7l1-.5v-7l4-2z"/><path fill="#BAA794" d="M157 121.5v12l-11 5.5v1l12-6v-13z"/><path d="m158 123-12 6v-2l12-6z" opacity=".15"/><path d="m158 122-12 6v-1l12-6z" opacity=".15"/><path fill="#39C" d="m174 126-12 6v-13l12-6z"/><path d="M174 122h-12v-3l12-6z" opacity=".15"/><path fill="#BAA794" d="m174 118-4 2v-5l-1 .5v5l-3 1.5v-5l-1 .5v5l-3 1.5v1l3-1.5v7l1-.5v-7l3-1.5v7l1-.5v-7l4-2z"/><path fill="#BAA794" d="M173 113.5v12l-11 5.5v1l12-6v-13z"/><path d="m174 115-12 6v-2l12-6z" opacity=".15"/><path d="m174 114-12 6v-1l12-6z" opacity=".15"/><path fill="#39C" d="m190 118-12 6v-13l12-6z"/><path fill="#BAA794" d="m190 110-4 2v-5l-1 .5v5l-3 1.5v-5l-1 .5v5l-3 1.5v1l3-1.5v7l1-.5v-7l3-1.5v7l1-.5v-7l4-2z"/><path fill="#BAA794" d="M189 105.5v12l-11 5.5v1l12-6v-13z"/><path d="m190 107-12 6v-2l12-6z" opacity=".15"/><path d="m190 106-12 6v-1l12-6z" opacity=".15"/><path fill="#39C" d="m142 110-12 6v-13l12-6z"/><path fill="#BAA794" d="m142 102-4 2v-5l-1 .5v5l-3 1.5v-5l-1 .5v5l-3 1.5v1l3-1.5v7l1-.5v-7l3-1.5v7l1-.5v-7l4-2z"/><path fill="#BAA794" d="M141 97.5v12l-11 5.5v1l12-6V97z"/><path d="m142 99-12 6v-2l12-6z" opacity=".15"/><path d="m142 98-12 6v-1l12-6z" opacity=".15"/><path fill="#39C" d="m158 102-12 6V95l12-6z"/><path fill="#BAA794" d="m158 94-4 2v-5l-1 .5v5l-3 1.5v-5l-1 .5v5l-3 1.5v1l3-1.5v7l1-.5v-7l3-1.5v7l1-.5v-7l4-2z"/><path fill="#BAA794" d="M157 89.5v12l-11 5.5v1l12-6V89z"/><path d="m158 91-12 6v-2l12-6z" opacity=".15"/><path d="m158 90-12 6v-1l12-6z" opacity=".15"/><path fill="#39C" d="m174 94-12 6V87l12-6z"/><path fill="#BAA794" d="m174 86-4 2v-5l-1 .5v5l-3 1.5v-5l-1 .5v5l-3 1.5v1l3-1.5v7l1-.5v-7l3-1.5v7l1-.5v-7l4-2z"/><path fill="#BAA794" d="M173 81.5v12L162 99v1l12-6V81z"/><path d="m174 83-12 6v-2l12-6z" opacity=".15"/><path d="m174 82-12 6v-1l12-6z" opacity=".15"/><path fill="#39C" d="m190 86-12 6V79l12-6z"/><path d="M190 86h-12v-7l12-6z" opacity=".15"/><path fill="#BAA794" d="m190 78-4 2v-5l-1 .5v5l-3 1.5v-5l-1 .5v5l-3 1.5v1l3-1.5v7l1-.5v-7l3-1.5v7l1-.5v-7l4-2z"/><path fill="#BAA794" d="M189 73.5v12L178 91v1l12-6V73z"/><path d="m190 75-12 6v-2l12-6z" opacity=".15"/><path d="m190 74-12 6v-1l12-6z" opacity=".15"/><path fill="#FFF" d="m192 71-64 32v-2l64-32z" opacity=".2"/><path fill="#FFF" d="m192 70-64 32v-1l64-32z" opacity=".8"/><path d="m192 72-64 32v-1l64-32z" opacity=".15"/><path fill="#FFF" d="m192 87-64 32v-1l64-32z" opacity=".8"/><path d="m192 88-64 32v-1l64-32z" opacity=".15"/><path fill="#FFF" d="m192 66-64 32v-1l64-32z" opacity=".8"/><path d="m192 67-64 32v-1l64-32z" opacity=".15"/><path fill="#FFF" d="m192 103-64 32v-1l64-32z" opacity=".8"/><path d="m192 104-64 32v-1l64-32z" opacity=".15"/><path fill="#FFF" d="m192 119-64 32v-1l64-32z" opacity=".8"/><path d="m192 120-64 32v-1l64-32z" opacity=".15"/><path d="m192 120-64 32V96l64-32z" opacity=".39"/><path fill="#F8EBCB" d="M0 32v56l128 64V96z"/><path fill="#39C" d="m78 108-12-6V89l12 6z"/><path fill="#BAA794" d="m78 100-4-2v-5l-1-.5v5L70 96v-5l-1-.5v5L66 94v1l3 1.5v7l1 .5v-7l3 1.5v7l1 .5v-7l4 2z"/><path fill="#BAA794" d="M77 94.5v12L66 101v1l12 6V95z"/><path d="m78 97-12-6v-2l12 6z" opacity=".15"/><path d="m78 96-12-6v-1l12 6z" opacity=".15"/><path fill="#39C" d="m94 116-12-6V97l12 6z"/><path fill="#BAA794" d="m94 108-4-2v-5l-1-.5v5l-3-1.5v-5l-1-.5v5l-3-1.5v1l3 1.5v7l1 .5v-7l3 1.5v7l1 .5v-7l4 2z"/><path fill="#BAA794" d="M93 102.5v12L82 109v1l12 6v-13z"/><path d="m94 105-12-6v-2l12 6z" opacity=".15"/><path d="m94 104-12-6v-1l12 6z" opacity=".15"/><path fill="#39C" d="m111 124.5-12-6v-13l12 6z"/><path fill="#BAA794" d="m111 116.5-4-2v-5l-1-.5v5l-3-1.5v-5l-1-.5v5l-3-1.5v1l3 1.5v7l1 .5v-7l3 1.5v7l1 .5v-7l4 2z"/><path fill="#BAA794" d="M110 111v12l-11-5.5v1l12 6v-13z"/><path d="m111 113.5-12-6v-2l12 6z" opacity=".15"/><path d="m111 112.5-12-6v-1l12 6z" opacity=".15"/><path fill="#39C" d="m126 132-12-6v-13l12 6z"/><path d="m126 127-12-12v-2l12 6z" opacity=".15"/><path fill="#BAA794" d="m126 124-4-2v-5l-1-.5v5l-3-1.5v-5l-1-.5v5l-3-1.5v1l3 1.5v7l1 .5v-7l3 1.5v7l1 .5v-7l4 2z"/><path fill="#BAA794" d="M125 118.5v12l-11-5.5v1l12 6v-13z"/><path d="m126 121-12-6v-2l12 6z" opacity=".15"/><path d="m126 120-12-6v-1l12 6z" opacity=".15"/><path fill="#39C" d="m78 92-12-6V73l12 6z"/><path fill="#BAA794" d="m78 84-4-2v-5l-1-.5v5L70 80v-5l-1-.5v5L66 78v1l3 1.5v7l1 .5v-7l3 1.5v7l1 .5v-7l4 2z"/><path fill="#BAA794" d="M77 78.5v12L66 85v1l12 6V79z"/><path d="m78 81-12-6v-2l12 6z" opacity=".15"/><path d="m78 80-12-6v-1l12 6z" opacity=".15"/><path fill="#39C" d="m94 100-12-6V81l12 6z"/><path fill="#BAA794" d="m94 92-4-2v-5l-1-.5v5L86 88v-5l-1-.5v5L82 86v1l3 1.5v7l1 .5v-7l3 1.5v7l1 .5v-7l4 2z"/><path fill="#BAA794" d="M93 86.5v12L82 93v1l12 6V87z"/><path d="m94 89-12-6v-2l12 6z" opacity=".15"/><path d="m94 88-12-6v-1l12 6z" opacity=".15"/><path fill="#39C" d="m111 108.5-12-6v-13l12 6z"/><path d="m111 102.5-12-11v-2l12 6z" opacity=".15"/><path fill="#BAA794" d="m111 100.5-4-2v-5l-1-.5v5l-3-1.5v-5l-1-.5v5l-3-1.5v1l3 1.5v7l1 .5v-7l3 1.5v7l1 .5v-7l4 2z"/><path fill="#BAA794" d="M110 95v12l-11-5.5v1l12 6v-13z"/><path d="m111 97.5-12-6v-2l12 6z" opacity=".15"/><path d="m111 96.5-12-6v-1l12 6z" opacity=".15"/><path fill="#39C" d="m126 116-12-6V97l12 6z"/><path d="m126 112-12-12v-3l12 6z" opacity=".15"/><path fill="#BAA794" d="m126 108-4-2v-5l-1-.5v5l-3-1.5v-5l-1-.5v5l-3-1.5v1l3 1.5v7l1 .5v-7l3 1.5v7l1 .5v-7l4 2z"/><path fill="#BAA794" d="M125 102.5v12l-11-5.5v1l12 6v-13z"/><path d="m126 105-12-6v-2l12 6z" opacity=".15"/><path d="m126 104-12-6v-1l12 6z" opacity=".15"/><path fill="#FFF" d="M128 103 0 39v-2l128 64z" opacity=".2"/><path fill="#FFF" d="M128 102 0 38v-1l128 64z" opacity=".8"/><path d="M128 104 0 40v-1l128 64z" opacity=".15"/><path fill="#FFF" d="M128 119 0 55v-1l128 64z" opacity=".8"/><path d="M128 120 0 56v-1l128 64z" opacity=".15"/><path fill="#FFF" d="M128 98 0 34v-1l128 64z" opacity=".8"/><path d="M128 99 0 35v-1l128 64z" opacity=".15"/><path fill="#FFF" d="M128 135 0 71v-1l128 64z" opacity=".8"/><path d="M128 136 0 72v-1l128 64z" opacity=".15"/><path fill="#FFF" d="M128 151 0 87v-1l128 64z" opacity=".8"/><path d="M128 152 0 88v-1l128 64z" opacity=".15"/><path fill="#39C" d="M14 76 2 70V57l12 6z"/><path fill="#FFF" d="M14 76 2 70v-9l12 12z" opacity=".2"/><path fill="#BAA794" d="m14 68-4-2v-5l-1-.5v5L6 64v-5l-1-.5v5L2 62v1l3 1.5v7l1 .5v-7l3 1.5v7l1 .5v-7l4 2z"/><path fill="#BAA794" d="M13 62.5v12L2 69v1l12 6V63z"/><path d="M14 65 2 59v-2l12 6z" opacity=".15"/><path d="M14 64 2 58v-1l12 6z" opacity=".15"/><path fill="#39C" d="m29 83.5-12-6v-13l12 6z"/><path fill="#FFF" d="m29 83.5-12-6v-7l12 12z" opacity=".2"/><path fill="#BAA794" d="m29 75.5-4-2v-5l-1-.5v5l-3-1.5v-5l-1-.5v5l-3-1.5v1l3 1.5v7l1 .5v-7l3 1.5v7l1 .5v-7l4 2z"/><path fill="#BAA794" d="M28 70v12l-11-5.5v1l12 6v-13z"/><path d="m29 72.5-12-6v-2l12 6z" opacity=".15"/><path d="m29 71.5-12-6v-1l12 6z" opacity=".15"/><path fill="#39C" d="m46 92-12-6V73l12 6z"/><path fill="#BAA794" d="m46 84-4-2v-5l-1-.5v5L38 80v-5l-1-.5v5L34 78v1l3 1.5v7l1 .5v-7l3 1.5v7l1 .5v-7l4 2z"/><path fill="#BAA794" d="M45 78.5v12L34 85v1l12 6V79z"/><path d="m46 81-12-6v-2l12 6z" opacity=".15"/><path d="m46 80-12-6v-1l12 6z" opacity=".15"/><path fill="#39C" d="m62 100-12-6V81l12 6z"/><path fill="#BAA794" d="m62 92-4-2v-5l-1-.5v5L54 88v-5l-1-.5v5L50 86v1l3 1.5v7l1 .5v-7l3 1.5v7l1 .5v-7l4 2z"/><path fill="#BAA794" d="M61 86.5v12L50 93v1l12 6V87z"/><path d="m62 89-12-6v-2l12 6z" opacity=".15"/><path d="m62 88-12-6v-1l12 6z" opacity=".15"/><path fill="#39C" d="M14 60 2 54V41l12 6z"/><path fill="#FFF" d="M14 60 2 54V41l12 12z" opacity=".2"/><path fill="#BAA794" d="m14 52-4-2v-5l-1-.5v5L6 48v-5l-1-.5v5L2 46v1l3 1.5v7l1 .5v-7l3 1.5v7l1 .5v-7l4 2z"/><path fill="#BAA794" d="M13 46.5v12L2 53v1l12 6V47z"/><path d="M14 49 2 43v-2l12 6z" opacity=".15"/><path d="M14 48 2 42v-1l12 6z" opacity=".15"/><path fill="#39C" d="m29 67.5-12-6v-13l12 6z"/><path fill="#BAA794" d="m29 59.5-4-2v-5l-1-.5v5l-3-1.5v-5l-1-.5v5l-3-1.5v1l3 1.5v7l1 .5v-7l3 1.5v7l1 .5v-7l4 2z"/><path fill="#BAA794" d="M28 54v12l-11-5.5v1l12 6v-13z"/><path d="m29 56.5-12-6v-2l12 6z" opacity=".15"/><path d="m29 55.5-12-6v-1l12 6z" opacity=".15"/><path fill="#39C" d="m46 76-12-6V57l12 6z"/><path fill="#BAA794" d="m46 68-4-2v-5l-1-.5v5L38 64v-5l-1-.5v5L34 62v1l3 1.5v7l1 .5v-7l3 1.5v7l1 .5v-7l4 2z"/><path fill="#BAA794" d="M45 62.5v12L34 69v1l12 6V63z"/><path d="m46 65-12-6v-2l12 6z" opacity=".15"/><path d="m46 64-12-6v-1l12 6z" opacity=".15"/><path fill="#39C" d="m62 84-12-6V65l12 6z"/><path fill="#BAA794" d="m62 76-4-2v-5l-1-.5v5L54 72v-5l-1-.5v5L50 70v1l3 1.5v7l1 .5v-7l3 1.5v7l1 .5v-7l4 2z"/><path fill="#BAA794" d="M61 70.5v12L50 77v1l12 6V71z"/><path d="m62 73-12-6v-2l12 6z" opacity=".15"/><path d="m62 72-12-6v-1l12 6zM33 85.5 30 84V72l3 1.5z" opacity=".15"/><path fill="#FFF" d="m32 75-1-.5v-1l1 .5zM32 78l-1-.5v-1l1 .5zM32 81l-1-.5v-1l1 .5zM32 84l-1-.5v-1l1 .5z" opacity=".8"/><path d="m33 101.5-3-1.5V88l3 1.5z" opacity=".15"/><path fill="#FFF" d="m32 91-1-.5v-1l1 .5zM32 94l-1-.5v-1l1 .5zM32 97l-1-.5v-1l1 .5zM32 100l-1-.5v-1l1 .5z" opacity=".8"/><path d="m98 118-3-1.5v-12l3 1.5z" opacity=".15"/><path fill="#FFF" d="m97 107.5-1-.5v-1l1 .5zM97 110.5l-1-.5v-1l1 .5zM97 113.5l-1-.5v-1l1 .5zM97 116.5l-1-.5v-1l1 .5z" opacity=".8"/><path fill="#39C" d="m78 124-12-6v-13l12 6z"/><path fill="#BAA794" d="m78 116-4-2v-5l-1-.5v5l-3-1.5v-5l-1-.5v5l-3-1.5v1l3 1.5v7l1 .5v-7l3 1.5v7l1 .5v-7l4 2z"/><path fill="#BAA794" d="M77 110.5v12L66 117v1l12 6v-13z"/><path d="m78 113-12-6v-2l12 6z" opacity=".15"/><path d="m78 112-12-6v-1l12 6z" opacity=".15"/><path fill="#39C" d="m94 132-12-6v-13l12 6z"/><path fill="#BAA794" d="m94 124-4-2v-5l-1-.5v5l-3-1.5v-5l-1-.5v5l-3-1.5v1l3 1.5v7l1 .5v-7l3 1.5v7l1 .5v-7l4 2z"/><path fill="#BAA794" d="M93 118.5v12L82 125v1l12 6v-13z"/><path d="m94 121-12-6v-2l12 6z" opacity=".15"/><path d="m94 120-12-6v-1l12 6z" opacity=".15"/><path fill="#39C" d="m111 140.5-12-6v-13l12 6z"/><path fill="#BAA794" d="m111 132.5-4-2v-5l-1-.5v5l-3-1.5v-5l-1-.5v5l-3-1.5v1l3 1.5v7l1 .5v-7l3 1.5v7l1 .5v-7l4 2z"/><path fill="#BAA794" d="M110 127v12l-11-5.5v1l12 6v-13z"/><path d="m111 129.5-12-6v-2l12 6z" opacity=".15"/><path d="m111 128.5-12-6v-1l12 6z" opacity=".15"/><path fill="#39C" d="m126 148-12-6v-13l12 6z"/><path d="m126 143-12-12v-2l12 6z" opacity=".15"/><path fill="#BAA794" d="m126 140-4-2v-5l-1-.5v5l-3-1.5v-5l-1-.5v5l-3-1.5v1l3 1.5v7l1 .5v-7l3 1.5v7l1 .5v-7l4 2z"/><path fill="#BAA794" d="M125 134.5v12l-11-5.5v1l12 6v-13z"/><path d="m126 137-12-6v-2l12 6z" opacity=".15"/><path d="m126 136-12-6v-1l12 6z" opacity=".15"/><path fill="#39C" d="M14 92 2 86V73l12 6z"/><path fill="#FFF" d="M14 92 2 86v-9l12 12z" opacity=".2"/><path fill="#BAA794" d="m14 84-4-2v-5l-1-.5v5L6 80v-5l-1-.5v5L2 78v1l3 1.5v7l1 .5v-7l3 1.5v7l1 .5v-7l4 2z"/><path fill="#BAA794" d="M13 78.5v12L2 85v1l12 6V79z"/><path d="M14 81 2 75v-2l12 6z" opacity=".15"/><path d="M14 80 2 74v-1l12 6z" opacity=".15"/><path fill="#39C" d="m29 99.5-12-6v-13l12 6z"/><path fill="#FFF" d="m29 99.5-12-6v-4l12 9z" opacity=".2"/><path fill="#BAA794" d="m29 91.5-4-2v-5l-1-.5v5l-3-1.5v-5l-1-.5v5l-3-1.5v1l3 1.5v7l1 .5v-7l3 1.5v7l1 .5v-7l4 2z"/><path fill="#BAA794" d="M28 86v12l-11-5.5v1l12 6v-13z"/><path d="m29 88.5-12-6v-2l12 6z" opacity=".15"/><path d="m29 87.5-12-6v-1l12 6z" opacity=".15"/><path fill="#39C" d="m46 108-12-6V89l12 6z"/><path fill="#BAA794" d="m46 100-4-2v-5l-1-.5v5L38 96v-5l-1-.5v5L34 94v1l3 1.5v7l1 .5v-7l3 1.5v7l1 .5v-7l4 2z"/><path fill="#BAA794" d="M45 94.5v12L34 101v1l12 6V95z"/><path d="m46 97-12-6v-2l12 6z" opacity=".15"/><path d="m46 96-12-6v-1l12 6z" opacity=".15"/><path fill="#39C" d="m62 116-12-6V97l12 6z"/><path fill="#BAA794" d="m62 108-4-2v-5l-1-.5v5l-3-1.5v-5l-1-.5v5l-3-1.5v1l3 1.5v7l1 .5v-7l3 1.5v7l1 .5v-7l4 2z"/><path fill="#BAA794" d="M61 102.5v12L50 109v1l12 6v-13z"/><path d="m62 105-12-6v-2l12 6z" opacity=".15"/><path d="m62 104-12-6v-1l12 6zM98 134l-3-1.5v-12l3 1.5z" opacity=".15"/><path fill="#FFF" d="m97 123.5-1-.5v-1l1 .5zM97 126.5l-1-.5v-1l1 .5zM97 129.5l-1-.5v-1l1 .5zM97 132.5l-1-.5v-1l1 .5z" opacity=".8"/><path d="M33 69.5 30 68V56l3 1.5z" opacity=".15"/><path fill="#FFF" d="m32 59-1-.5v-1l1 .5zM32 62l-1-.5v-1l1 .5zM32 65l-1-.5v-1l1 .5zM32 68l-1-.5v-1l1 .5z" opacity=".8"/><path d="m98 102-3-1.5v-12l3 1.5z" opacity=".15"/><path fill="#FFF" d="m97 91.5-1-.5v-1l1 .5zM97 94.5l-1-.5v-1l1 .5zM97 97.5l-1-.5v-1l1 .5zM97 100.5l-1-.5v-1l1 .5z" opacity=".8"/><path d="M0 32v56l128 64V96z" opacity=".06"/></svg>